<svg width="20" height="13" viewBox="0 0 20 13" fill="none" xmlns="http://www.w3.org/2000/svg">
<path d="M10.852 8.92627C9.9997 8.34674 9.35262 7.50244 9.00646 6.51825C8.66029 5.53405 8.63343 4.4622 8.92982 3.4612C9.22622 2.4602 9.83015 1.58319 10.6523 0.959867C11.4744 0.336545 12.4712 0 13.4951 0C14.519 0 15.5157 0.336545 16.3378 0.959867C17.16 1.58319 17.7639 2.4602 18.0603 3.4612C18.3567 4.4622 18.3298 5.53405 17.9837 6.51825C17.6375 7.50244 16.9904 8.34674 16.1381 8.92627C17.6799 9.50664 18.9965 10.5806 19.8917 11.9879C19.9387 12.0593 19.9714 12.1396 19.9878 12.224C20.0042 12.3084 20.0041 12.3954 19.9873 12.4797C19.9705 12.5641 19.9375 12.6442 19.8902 12.7154C19.8428 12.7866 19.7821 12.8475 19.7115 12.8945C19.6409 12.9415 19.5619 12.9738 19.479 12.9893C19.3961 13.0049 19.311 13.0034 19.2286 12.9851C19.1463 12.9668 19.0683 12.9319 18.9993 12.8825C18.9303 12.8332 18.8715 12.7703 18.8265 12.6975C18.2491 11.7904 17.459 11.0451 16.5279 10.5291C15.5969 10.0131 14.5544 9.74283 13.4951 9.74283C12.4358 9.74283 11.3933 10.0131 10.4622 10.5291C9.53114 11.0451 8.74103 11.7904 8.16362 12.6975C8.07035 12.8391 7.92627 12.9375 7.76252 12.9714C7.59878 13.0054 7.42853 12.9722 7.28859 12.8789C7.14864 12.7857 7.05024 12.64 7.01466 12.4732C6.97908 12.3065 7.00917 12.1322 7.09844 11.9879C7.99359 10.5806 9.31027 9.50664 10.852 8.92627ZM16.9927 4.87332C16.9927 4.16678 16.7875 3.47611 16.4032 2.88864C16.0189 2.30118 15.4726 1.84331 14.8335 1.57293C14.1944 1.30255 13.4912 1.2318 12.8127 1.36964C12.1343 1.50748 11.511 1.84771 11.0219 2.34731C10.5327 2.8469 10.1996 3.48343 10.0647 4.17639C9.92972 4.86935 9.99899 5.58763 10.2637 6.24038C10.5284 6.89314 10.9767 7.45106 11.5519 7.84359C12.1271 8.23612 12.8033 8.44563 13.4951 8.44563C14.4224 8.44456 15.3114 8.06784 15.9671 7.39814C16.6228 6.72843 16.9916 5.82042 16.9927 4.87332ZM0.288464 12.8867C0.42972 12.9807 0.601779 13.0137 0.766799 12.9782C0.931819 12.9427 1.07629 12.8418 1.16843 12.6975C1.74515 11.7899 2.53516 11.0442 3.46641 10.5284C4.39766 10.0127 5.44052 9.74321 6.49987 9.74466C6.66853 9.74466 6.83028 9.67623 6.94954 9.55442C7.0688 9.43261 7.1358 9.2674 7.1358 9.09514C7.1358 8.92288 7.0688 8.75768 6.94954 8.63587C6.83028 8.51406 6.66853 8.44563 6.49987 8.44563C5.9848 8.44514 5.47619 8.32845 5.01038 8.10392C4.54458 7.87938 4.13307 7.55254 3.80528 7.14675C3.47748 6.74095 3.24148 6.26622 3.11415 5.75647C2.98681 5.24672 2.97127 4.71454 3.06865 4.19794C3.16603 3.68135 3.37392 3.1931 3.67746 2.76808C3.98101 2.34306 4.37272 1.99176 4.8246 1.73929C5.27648 1.48681 5.77738 1.33938 6.29152 1.30755C6.80565 1.27571 7.32032 1.36025 7.79875 1.55512C7.87676 1.58956 7.96074 1.60769 8.04572 1.60842C8.1307 1.60915 8.21496 1.59248 8.29353 1.55939C8.37209 1.5263 8.44337 1.47746 8.50314 1.41576C8.56292 1.35406 8.60997 1.28075 8.64153 1.20016C8.6731 1.11956 8.68852 1.03333 8.6869 0.946544C8.68528 0.859761 8.66665 0.774189 8.6321 0.694886C8.59755 0.615582 8.54779 0.544156 8.48576 0.484828C8.42372 0.425499 8.35067 0.379472 8.27093 0.349465C7.17597 -0.0965453 5.9581 -0.112595 4.85224 0.304411C3.74638 0.721417 2.8309 1.54193 2.28241 2.60767C1.73392 3.6734 1.59129 4.90885 1.88202 6.07566C2.17275 7.24247 2.87625 8.25798 3.85681 8.92627C2.31508 9.50664 0.9984 10.5806 0.10325 11.9879C0.0111376 12.1322 -0.0210961 12.3079 0.0136371 12.4765C0.0483703 12.645 0.147227 12.7926 0.288464 12.8867Z" fill="#707070"/>
</svg>
