<svg width="20" height="20" viewBox="0 0 20 20" fill="none" xmlns="http://www.w3.org/2000/svg">
<path d="M19.2182 8.09671L16.3112 5.69444V1.63491C16.3122 1.58471 16.3031 1.53482 16.2843 1.48823C16.2655 1.44165 16.2376 1.39933 16.202 1.36383C16.1665 1.32832 16.1241 1.30036 16.0775 1.28163C16.0308 1.26289 15.9809 1.25377 15.9307 1.2548H13.6477C13.5974 1.25377 13.5475 1.26289 13.5008 1.28163C13.4542 1.30036 13.4118 1.32832 13.3763 1.36383C13.3408 1.39933 13.3128 1.44165 13.294 1.48823C13.2753 1.53482 13.2661 1.58471 13.2672 1.63491V3.20094L10.0862 0.585817C10.0172 0.530283 9.93126 0.5 9.84266 0.5C9.75407 0.5 9.66813 0.530283 9.59915 0.585817L0.467165 8.09671C0.390955 8.15922 0.342015 8.24884 0.330658 8.34669C0.319301 8.44455 0.346415 8.54298 0.406285 8.62125L1.53256 10.0733C1.56312 10.1148 1.60181 10.1497 1.64629 10.1758C1.69077 10.202 1.74011 10.2188 1.7913 10.2253C1.89227 10.233 1.99253 10.2033 2.07287 10.1417L9.84266 3.7635L17.6125 10.1265C17.6817 10.1812 17.7676 10.2107 17.856 10.2101C17.9072 10.2036 17.9565 10.1868 18.001 10.1606C18.0455 10.1345 18.0842 10.0996 18.1147 10.0581L19.241 8.60605C19.301 8.53342 19.332 8.4411 19.3277 8.34699C19.3235 8.25288 19.2845 8.16369 19.2182 8.09671ZM9.84266 4.75178L2.61318 10.6586V18.5496C2.61516 18.6764 2.64213 18.8016 2.69254 18.9179C2.74295 19.0343 2.81582 19.1396 2.90698 19.2279C2.99814 19.3161 3.10581 19.3856 3.22384 19.4322C3.34187 19.4789 3.46795 19.5019 3.59487 19.4999H16.0905C16.2174 19.5019 16.3435 19.4789 16.4615 19.4322C16.5795 19.3856 16.6872 19.3161 16.7784 19.2279C16.8695 19.1396 16.9424 19.0343 16.9928 18.9179C17.0432 18.8016 17.0702 18.6764 17.0721 18.5496V10.6586L9.84266 4.75178ZM9.46217 18.7397H5.65717V13.0381C5.65614 12.9879 5.66527 12.938 5.68403 12.8914C5.70278 12.8448 5.73077 12.8025 5.76631 12.767C5.80185 12.7315 5.84421 12.7035 5.89085 12.6848C5.93748 12.6661 5.98742 12.6569 6.03767 12.658H9.08167C9.13192 12.6569 9.18186 12.6661 9.22849 12.6848C9.27513 12.7035 9.31749 12.7315 9.35303 12.767C9.38857 12.8025 9.41656 12.8448 9.43531 12.8914C9.45407 12.938 9.4632 12.9879 9.46217 13.0381V18.7397ZM14.7892 15.3187C14.7892 15.4195 14.7491 15.5162 14.6777 15.5875C14.6064 15.6588 14.5096 15.6988 14.4087 15.6988H12.1257C12.0247 15.6988 11.928 15.6588 11.8566 15.5875C11.7852 15.5162 11.7452 15.4195 11.7452 15.3187V11.5177C11.7441 11.4675 11.7533 11.4176 11.772 11.371C11.7908 11.3244 11.8188 11.2821 11.8543 11.2466C11.8898 11.2111 11.9322 11.1831 11.9788 11.1644C12.0255 11.1456 12.0754 11.1365 12.1257 11.1376H14.4087C14.4589 11.1365 14.5089 11.1456 14.5555 11.1644C14.6021 11.1831 14.6445 11.2111 14.68 11.2466C14.7156 11.2821 14.7435 11.3244 14.7623 11.371C14.7811 11.4176 14.7902 11.4675 14.7892 11.5177V15.3187Z" fill="#6C2EEE" fill-opacity="0.8"/>
</svg>
