<svg width="159" height="20" viewBox="0 0 159 20" fill="none" xmlns="http://www.w3.org/2000/svg">
<path d="M6.248 14.556C10.5013 14.5267 14.0213 14.4533 16.808 14.336C16.6173 15.084 16.5 15.8027 16.456 16.492C16.412 17.1813 16.39 18.0173 16.39 19H0.88C0.997333 16.1547 1.056 13.4927 1.056 11.014C1.056 8.53533 0.997333 5.87333 0.88 3.028H6.248V14.556ZM21.5096 5.69C20.5856 5.69 19.8963 5.46267 19.4416 5.008C19.0016 4.55333 18.7816 3.95933 18.7816 3.226C18.7816 2.50733 19.0016 1.91333 19.4416 1.444C19.8963 0.974666 20.5856 0.739999 21.5096 0.739999C22.3896 0.739999 23.0643 0.981999 23.5336 1.466C24.003 1.93533 24.2376 2.522 24.2376 3.226C24.2376 3.95933 24.0103 4.55333 23.5556 5.008C23.101 5.46267 22.419 5.69 21.5096 5.69ZM18.9576 19C19.0603 16.6387 19.1116 14.688 19.1116 13.148C19.1116 11.3147 19.053 9.26133 18.9356 6.988H24.2156C24.0983 9.17333 24.0396 11.2267 24.0396 13.148C24.0396 14.7613 24.091 16.712 24.1936 19H18.9576ZM33.3161 19.22C32.0841 19.22 30.8301 19.0513 29.5541 18.714C28.2927 18.362 27.1047 17.834 25.9901 17.13L28.3001 13.984C28.9747 14.468 29.7887 14.8493 30.7421 15.128C31.6954 15.392 32.5167 15.524 33.2061 15.524C33.8661 15.524 34.3721 15.436 34.7241 15.26C35.0907 15.0693 35.2741 14.8273 35.2741 14.534C35.2741 14.2993 35.1861 14.116 35.0101 13.984C34.8341 13.852 34.5921 13.786 34.2841 13.786C34.0934 13.786 33.8734 13.7933 33.6241 13.808C33.3894 13.8227 33.1987 13.8373 33.0521 13.852C32.2894 13.94 31.5047 13.984 30.6981 13.984C29.3927 13.984 28.3294 13.742 27.5081 13.258C26.7014 12.7593 26.2981 11.9527 26.2981 10.838C26.2981 9.54733 26.9067 8.55 28.1241 7.846C29.3414 7.12733 31.1307 6.768 33.4921 6.768C34.6507 6.768 35.8167 6.93667 36.9901 7.274C38.1781 7.59667 39.2267 8.088 40.1361 8.748L37.6061 11.3C36.7701 10.86 35.9854 10.552 35.2521 10.376C34.5334 10.1853 33.8074 10.09 33.0741 10.09C32.5607 10.09 32.1207 10.1927 31.7541 10.398C31.3874 10.6033 31.2041 10.838 31.2041 11.102C31.2041 11.3073 31.2774 11.4687 31.4241 11.586C31.5854 11.7033 31.7907 11.762 32.0401 11.762C32.2894 11.762 32.6341 11.74 33.0741 11.696C34.1447 11.6227 34.9441 11.586 35.4721 11.586C36.9974 11.586 38.1781 11.8427 39.0141 12.356C39.8501 12.8693 40.2681 13.654 40.2681 14.71C40.2681 16.294 39.6521 17.4453 38.4201 18.164C37.1881 18.868 35.4867 19.22 33.3161 19.22ZM56.2 3.05C59.1187 3.05 61.15 3.57067 62.294 4.612C63.438 5.63867 64.01 7.09067 64.01 8.968C64.01 10.2587 63.7827 11.3587 63.328 12.268C62.8734 13.1627 62.074 13.8667 60.93 14.38C59.786 14.8787 58.2094 15.128 56.2 15.128H51.624V19H46.212C46.3294 16.1547 46.388 13.4927 46.388 11.014C46.388 8.53533 46.3294 5.87333 46.212 3.028H51.624V3.05H56.2ZM54.66 10.882C55.8774 10.882 56.7867 10.838 57.388 10.75C58.004 10.6473 58.4294 10.4713 58.664 10.222C58.9134 9.97267 59.038 9.606 59.038 9.122C59.038 8.638 58.9207 8.27867 58.686 8.044C58.466 7.79467 58.048 7.626 57.432 7.538C56.8307 7.45 55.9067 7.406 54.66 7.406H51.624V10.882H54.66ZM77.4008 13.5H70.2288C70.3461 14.1453 70.6321 14.6733 71.0868 15.084C71.5561 15.48 72.2161 15.678 73.0668 15.678C73.6828 15.678 74.2621 15.5607 74.8048 15.326C75.3475 15.0767 75.7801 14.732 76.1028 14.292C77.0855 14.776 78.3908 15.2967 80.0188 15.854C79.5641 16.8807 78.7355 17.702 77.5328 18.318C76.3448 18.9193 74.7901 19.22 72.8688 19.22C70.3755 19.22 68.5275 18.648 67.3248 17.504C66.1368 16.3453 65.5428 14.8273 65.5428 12.95C65.5428 11.1167 66.1368 9.628 67.3248 8.484C68.5128 7.34 70.3608 6.768 72.8688 6.768C74.3648 6.768 75.6628 7.01733 76.7628 7.516C77.8628 8.01467 78.7061 8.71133 79.2928 9.606C79.8795 10.486 80.1728 11.498 80.1728 12.642C80.1728 13.0233 80.1581 13.3093 80.1288 13.5H77.4008ZM73.1768 10.09C72.4435 10.09 71.8421 10.2293 71.3728 10.508C70.9035 10.7867 70.5735 11.168 70.3828 11.652H75.5748C75.3988 11.1827 75.1128 10.8087 74.7168 10.53C74.3208 10.2367 73.8075 10.09 73.1768 10.09ZM90.2842 19C90.3722 16.844 90.4162 14.8567 90.4162 13.038C90.4162 12.3927 90.2549 11.8793 89.9322 11.498C89.6242 11.1167 89.2282 10.926 88.7442 10.926C88.2602 10.926 87.8496 11.146 87.5122 11.586C87.1749 12.0113 86.9769 12.598 86.9182 13.346C86.8889 14.4607 86.8742 15.2527 86.8742 15.722C86.8742 16.7193 86.9036 17.812 86.9622 19H81.7042C81.8216 16.888 81.8802 14.8933 81.8802 13.016C81.8802 11.1387 81.8216 9.12933 81.7042 6.988C82.6722 7.032 83.4129 7.054 83.9262 7.054C84.4689 7.054 85.2096 7.032 86.1482 6.988L86.7862 10.222C87.1236 9.04867 87.6516 8.18333 88.3702 7.626C89.0889 7.054 89.9249 6.768 90.8782 6.768C91.7582 6.768 92.5209 6.966 93.1662 7.362C93.8116 7.74333 94.2956 8.264 94.6182 8.924C94.9556 9.584 95.1242 10.3247 95.1242 11.146V14.314C95.1242 16.2647 95.1609 17.8267 95.2342 19H90.2842ZM111.389 1.884C111.301 4.612 111.257 7.46467 111.257 10.442C111.257 13.39 111.301 16.2427 111.389 19H106.417L106.483 16.36C106.058 17.3427 105.442 18.0687 104.635 18.538C103.828 18.9927 102.875 19.22 101.775 19.22C100.822 19.22 99.9638 18.9487 99.2011 18.406C98.4384 17.8633 97.8444 17.13 97.4191 16.206C96.9938 15.2673 96.7811 14.2407 96.7811 13.126C96.7811 12.026 96.9938 10.992 97.4191 10.024C97.8444 9.04133 98.4384 8.25667 99.2011 7.67C99.9784 7.06867 100.858 6.768 101.841 6.768C102.985 6.768 103.96 7.01 104.767 7.494C105.588 7.96333 106.197 8.69667 106.593 9.694C106.593 8.858 106.564 7.516 106.505 5.668C106.446 3.87867 106.417 2.61733 106.417 1.884H111.389ZM104.085 15.524C104.804 15.524 105.39 15.326 105.845 14.93C106.3 14.5193 106.527 13.874 106.527 12.994C106.527 12.2167 106.3 11.6447 105.845 11.278C105.39 10.9113 104.818 10.728 104.129 10.728C103.469 10.728 102.912 10.9407 102.457 11.366C102.017 11.7767 101.797 12.3193 101.797 12.994C101.797 13.742 102.002 14.3507 102.413 14.82C102.824 15.2893 103.381 15.524 104.085 15.524ZM124.795 13.5H117.623C117.741 14.1453 118.027 14.6733 118.481 15.084C118.951 15.48 119.611 15.678 120.461 15.678C121.077 15.678 121.657 15.5607 122.199 15.326C122.742 15.0767 123.175 14.732 123.497 14.292C124.48 14.776 125.785 15.2967 127.413 15.854C126.959 16.8807 126.13 17.702 124.927 18.318C123.739 18.9193 122.185 19.22 120.263 19.22C117.77 19.22 115.922 18.648 114.719 17.504C113.531 16.3453 112.937 14.8273 112.937 12.95C112.937 11.1167 113.531 9.628 114.719 8.484C115.907 7.34 117.755 6.768 120.263 6.768C121.759 6.768 123.057 7.01733 124.157 7.516C125.257 8.01467 126.101 8.71133 126.687 9.606C127.274 10.486 127.567 11.498 127.567 12.642C127.567 13.0233 127.553 13.3093 127.523 13.5H124.795ZM120.571 10.09C119.838 10.09 119.237 10.2293 118.767 10.508C118.298 10.7867 117.968 11.168 117.777 11.652H122.969C122.793 11.1827 122.507 10.8087 122.111 10.53C121.715 10.2367 121.202 10.09 120.571 10.09ZM137.679 19C137.767 16.844 137.811 14.8567 137.811 13.038C137.811 12.3927 137.649 11.8793 137.327 11.498C137.019 11.1167 136.623 10.926 136.139 10.926C135.655 10.926 135.244 11.146 134.907 11.586C134.569 12.0113 134.371 12.598 134.313 13.346C134.283 14.4607 134.269 15.2527 134.269 15.722C134.269 16.7193 134.298 17.812 134.357 19H129.099C129.216 16.888 129.275 14.8933 129.275 13.016C129.275 11.1387 129.216 9.12933 129.099 6.988C130.067 7.032 130.807 7.054 131.321 7.054C131.863 7.054 132.604 7.032 133.543 6.988L134.181 10.222C134.518 9.04867 135.046 8.18333 135.765 7.626C136.483 7.054 137.319 6.768 138.273 6.768C139.153 6.768 139.915 6.966 140.561 7.362C141.206 7.74333 141.69 8.264 142.013 8.924C142.35 9.584 142.519 10.3247 142.519 11.146V14.314C142.519 16.2647 142.555 17.8267 142.629 19H137.679ZM151.502 19.22C150.27 19.22 149.016 19.0513 147.74 18.714C146.478 18.362 145.29 17.834 144.176 17.13L146.486 13.984C147.16 14.468 147.974 14.8493 148.928 15.128C149.881 15.392 150.702 15.524 151.392 15.524C152.052 15.524 152.558 15.436 152.91 15.26C153.276 15.0693 153.46 14.8273 153.46 14.534C153.46 14.2993 153.372 14.116 153.196 13.984C153.02 13.852 152.778 13.786 152.47 13.786C152.279 13.786 152.059 13.7933 151.81 13.808C151.575 13.8227 151.384 13.8373 151.238 13.852C150.475 13.94 149.69 13.984 148.884 13.984C147.578 13.984 146.515 13.742 145.694 13.258C144.887 12.7593 144.484 11.9527 144.484 10.838C144.484 9.54733 145.092 8.55 146.31 7.846C147.527 7.12733 149.316 6.768 151.678 6.768C152.836 6.768 154.002 6.93667 155.176 7.274C156.364 7.59667 157.412 8.088 158.322 8.748L155.792 11.3C154.956 10.86 154.171 10.552 153.438 10.376C152.719 10.1853 151.993 10.09 151.26 10.09C150.746 10.09 150.306 10.1927 149.94 10.398C149.573 10.6033 149.39 10.838 149.39 11.102C149.39 11.3073 149.463 11.4687 149.61 11.586C149.771 11.7033 149.976 11.762 150.226 11.762C150.475 11.762 150.82 11.74 151.26 11.696C152.33 11.6227 153.13 11.586 153.658 11.586C155.183 11.586 156.364 11.8427 157.2 12.356C158.036 12.8693 158.454 13.654 158.454 14.71C158.454 16.294 157.838 17.4453 156.606 18.164C155.374 18.868 153.672 19.22 151.502 19.22Z" fill="white"/>
</svg>
