<svg width="42" height="42" viewBox="0 0 42 42" fill="none" xmlns="http://www.w3.org/2000/svg">
<rect x="0.5" y="0.5" width="41" height="41" rx="20.5" stroke="#ABABAB"/>
<path d="M13.5672 26.784V17.9728C13.5672 16.1033 14.3098 14.3104 15.6318 12.9884C16.9537 11.6665 18.7466 10.9238 20.6161 10.9238C22.4856 10.9238 24.2786 11.6665 25.6005 12.9884C26.9224 14.3104 27.6651 16.1033 27.6651 17.9728V26.784M10.9238 26.784H30.3084M23.2595 26.784V27.6651C23.2595 28.3661 22.981 29.0385 22.4853 29.5342C21.9895 30.0299 21.3172 30.3084 20.6161 30.3084C19.9151 30.3084 19.2427 30.0299 18.747 29.5342C18.2513 29.0385 17.9728 28.3661 17.9728 27.6651V26.784" stroke="#ABABAB" stroke-width="1.5"/>
<rect x="33" y="4" width="8" height="8" rx="4" fill="#FD3554"/>
</svg>
